<?xml version="1.0" encoding="utf-8"?>
<!-- Generator: Adobe Illustrator 26.2.1, SVG Export Plug-In . SVG Version: 6.00 Build 0)  -->
<svg version="1.1" id="圖層_1" xmlns="http://www.w3.org/2000/svg" xmlns:xlink="http://www.w3.org/1999/xlink" x="0px" y="0px"
	 viewBox="0 0 100 100" style="enable-background:new 0 0 100 100;" xml:space="preserve">
<g id="Layer_2">
	<g id="Layer_2-2">
		<path d="M77.4,90.5H22.6c-4.1-0.1-7.5-3.5-7.4-7.6V17.1c-0.1-4.1,3.2-7.5,7.4-7.6h42.4c1.9,0,3.6,0.8,4.8,2.2l13.4,15.3
			c1.1,1.2,1.7,2.8,1.7,4.5V83C84.8,86.9,81.6,90.3,77.4,90.5z M22.6,12.6c-2.4,0.1-4.2,2.1-4.1,4.5v65.7c-0.1,2.4,1.8,4.4,4.1,4.5
			h54.9c2.4-0.1,4.2-2.1,4.1-4.5V31.4c0-0.9-0.3-1.8-0.9-2.4L67.3,13.7c-0.6-0.7-1.5-1.1-2.4-1.1H22.6z"/>
		<path d="M82.9,32.4H72.4c-4.5,0-8.2-3.7-8.2-8.2V11.7c0-0.9,0.7-1.6,1.6-1.6s1.6,0.7,1.6,1.6v12.5c0,2.8,2.3,5,5,5H83
			c0.9,0,1.6,0.7,1.6,1.6C84.5,31.7,83.8,32.4,82.9,32.4z"/>
		<path d="M46.2,31.3H34.7c-0.9,0-1.6-0.7-1.6-1.6s0.7-1.6,1.6-1.6h11.5c0.9,0,1.6,0.7,1.6,1.6C47.7,30.5,47.1,31.3,46.2,31.3z"/>
		<circle cx="26.1" cy="29.7" r="2.5"/>
		<path d="M68.5,43.8H34.7c-0.9,0-1.6-0.7-1.6-1.6s0.7-1.6,1.6-1.6h33.8c0.9,0,1.6,0.7,1.6,1.6S69.4,43.8,68.5,43.8z"/>
		<circle cx="26.1" cy="42.1" r="2.5"/>
		<path d="M57.6,56.2h-23c-0.9,0-1.6-0.7-1.6-1.6s0.7-1.6,1.6-1.6h23c0.9,0,1.6,0.7,1.6,1.6S58.5,56.2,57.6,56.2z"/>
		<circle cx="26.1" cy="54.5" r="2.5"/>
	</g>
</g>
</svg>
